<?xml version="1.0" encoding="UTF-8" standalone="no"?>
<!-- Uploaded to: SVG Repo, www.svgrepo.com, Generator: SVG Repo Mixer Tools -->

<svg
   width="600"
   height="600"
   viewBox="0 0 18 18"
   fill="none"
   version="1.1"
   id="svg1"
   sodipodi:docname="clock - Copy.svg"
   xmlns:inkscape="http://www.inkscape.org/namespaces/inkscape"
   xmlns:sodipodi="http://sodipodi.sourceforge.net/DTD/sodipodi-0.dtd"
   xmlns="http://www.w3.org/2000/svg"
   xmlns:svg="http://www.w3.org/2000/svg">
  <defs
     id="defs1" />
  <sodipodi:namedview
     id="namedview1"
     pagecolor="#ffffff"
     bordercolor="#000000"
     borderopacity="0.25"
     inkscape:showpageshadow="2"
     inkscape:pageopacity="0.0"
     inkscape:pagecheckerboard="0"
     inkscape:deskcolor="#d1d1d1">
    <inkscape:page
       x="0"
       y="0"
       width="18"
       height="18"
       id="page1"
       margin="0"
       bleed="0" />
  </sodipodi:namedview>
  <path
     fill-rule="evenodd"
     clip-rule="evenodd"
     d="m 9,18 c 4.9706,0 9,-4.0294 9,-9 C 18,4.02944 13.9706,0 9,0 4.02944,0 0,4.02944 0,9 c 0,4.9706 4.02944,9 9,9 z M 10,3.5 c 0,-0.55228 -0.4477,-1 -1,-1 -0.5523,0 -1,0.44772 -1,1 V 8.75 C 8,9.4404 8.5596,10 9.25,10 h 3.25 c 0.5523,0 1,-0.4477 1,-1 0,-0.5523 -0.4477,-1 -1,-1 H 10 Z"
     fill="#222222"
     id="path1"
     style="fill:#a6a6a6;fill-opacity:1"
     inkscape:export-filename="clockGray.svg"
     inkscape:export-xdpi="96"
     inkscape:export-ydpi="96" />
</svg>
