<?xml version="1.0" encoding="UTF-8" standalone="no"?>
<!-- Uploaded to: SVG Repo, www.svgrepo.com, Generator: SVG Repo Mixer Tools -->

<svg
   fill="#000000"
   width="800px"
   height="800px"
   viewBox="0 0 32 32"
   enable-background="new 0 0 32 32"
   id="Glyph"
   version="1.1"
   xml:space="preserve"
   sodipodi:docname="dot.svg"
   inkscape:version="1.4.2 (f4327f4, 2025-05-13)"
   xmlns:inkscape="http://www.inkscape.org/namespaces/inkscape"
   xmlns:sodipodi="http://sodipodi.sourceforge.net/DTD/sodipodi-0.dtd"
   xmlns="http://www.w3.org/2000/svg"
   xmlns:svg="http://www.w3.org/2000/svg"><defs
     id="defs1" /><sodipodi:namedview
     id="namedview1"
     pagecolor="#ffffff"
     bordercolor="#000000"
     borderopacity="0.25"
     inkscape:showpageshadow="2"
     inkscape:pageopacity="0.0"
     inkscape:pagecheckerboard="0"
     inkscape:deskcolor="#d1d1d1"
     inkscape:zoom="1.00875"
     inkscape:cx="399.00867"
     inkscape:cy="400"
     inkscape:window-width="1920"
     inkscape:window-height="1009"
     inkscape:window-x="1912"
     inkscape:window-y="-8"
     inkscape:window-maximized="1"
     inkscape:current-layer="Glyph" /><path
     d="M13,16c0,1.654,1.346,3,3,3s3-1.346,3-3s-1.346-3-3-3S13,14.346,13,16z"
     id="XMLID_294_"
     style="fill:#4898bd;fill-opacity:1" /><path
     d="M13,26c0,1.654,1.346,3,3,3s3-1.346,3-3s-1.346-3-3-3S13,24.346,13,26z"
     id="XMLID_295_"
     style="fill:#4898bd;fill-opacity:1" /><path
     d="M13,6c0,1.654,1.346,3,3,3s3-1.346,3-3s-1.346-3-3-3S13,4.346,13,6z"
     id="XMLID_297_"
     style="fill:#4898bd;fill-opacity:1" /></svg>
