<?xml version="1.0" encoding="UTF-8" standalone="no"?>
<!-- Uploaded to: SVG Repo, www.svgrepo.com, Generator: SVG Repo Mixer Tools -->

<svg
   fill="#000000"
   version="1.1"
   id="Layer_1"
   width="800px"
   height="800px"
   viewBox="796 796 200 200"
   enable-background="new 796 796 200 200"
   xml:space="preserve"
   sodipodi:docname="gavel-svgrepo-com.svg"
   inkscape:version="1.4.2 (f4327f4, 2025-05-13)"
   xmlns:inkscape="http://www.inkscape.org/namespaces/inkscape"
   xmlns:sodipodi="http://sodipodi.sourceforge.net/DTD/sodipodi-0.dtd"
   xmlns="http://www.w3.org/2000/svg"
   xmlns:svg="http://www.w3.org/2000/svg"><defs
   id="defs3" /><sodipodi:namedview
   id="namedview3"
   pagecolor="#ffffff"
   bordercolor="#000000"
   borderopacity="0.25"
   inkscape:showpageshadow="2"
   inkscape:pageopacity="0.0"
   inkscape:pagecheckerboard="0"
   inkscape:deskcolor="#d1d1d1"
   inkscape:zoom="0.504375"
   inkscape:cx="457.00124"
   inkscape:cy="562.08178"
   inkscape:window-width="1920"
   inkscape:window-height="1009"
   inkscape:window-x="1912"
   inkscape:window-y="-8"
   inkscape:window-maximized="1"
   inkscape:current-layer="Layer_1" />
<g
   id="g3"
   transform="matrix(0.76704007,0,0,0.76704007,208.73203,208.73212)"
   style="fill:#ffffff;fill-opacity:1">
	<path
   d="m 936.46,868.211 c 4.939,4.94 12.946,4.938 17.884,0 4.94,-4.938 4.941,-12.946 0,-17.885 l -50.619,-50.622 c -4.94,-4.94 -12.947,-4.938 -17.887,0 -4.939,4.938 -4.939,12.946 0,17.885 z"
   id="path1"
   style="fill:#ffffff;fill-opacity:1" />
	<path
   d="m 817.588,885.841 c -4.938,-4.94 -12.946,-4.94 -17.884,0 -4.939,4.938 -4.941,12.945 0,17.885 l 50.619,50.619 c 4.94,4.94 12.946,4.94 17.887,0 4.94,-4.938 4.94,-12.946 0,-17.886 z"
   id="path2"
   style="fill:#ffffff;fill-opacity:1" />
	<path
   d="m 989.605,963.929 -75.06,-63.993 c 3.388,-3.902 6.598,-7.964 9.563,-12.216 l 1.549,-2.22 c 3.202,-4.592 2.651,-10.82 -1.308,-14.779 L 883.328,829.7 c -3.959,-3.959 -10.187,-4.509 -14.779,-1.307 l -3.618,2.523 c -13.254,9.244 -24.769,20.759 -34.014,34.012 l -2.524,3.619 c -3.203,4.593 -2.653,10.822 1.306,14.78 l 41.023,41.021 c 3.959,3.959 10.186,4.51 14.778,1.307 l 2.22,-1.549 c 4.25,-2.964 8.312,-6.172 12.213,-9.558 l 63.994,75.058 c 3.297,3.867 8.06,6.181 13.136,6.38 5.079,0.202 10.01,-1.725 13.603,-5.317 3.595,-3.593 5.522,-8.523 5.32,-13.602 -0.201,-5.079 -2.515,-9.84 -6.381,-13.138 z"
   id="path3"
   style="fill:#ffffff;fill-opacity:1" />
</g>
</svg>
