<?xml version="1.0" encoding="UTF-8" standalone="no"?>
<!-- Uploaded to: SVG Repo, www.svgrepo.com, Generator: SVG Repo Mixer Tools -->

<svg
   fill="#000000"
   width="800px"
   height="800px"
   viewBox="0 0 24 24"
   version="1.1"
   id="svg1"
   sodipodi:docname="law-svgrepo-com.svg"
   inkscape:version="1.4.2 (f4327f4, 2025-05-13)"
   xmlns:inkscape="http://www.inkscape.org/namespaces/inkscape"
   xmlns:sodipodi="http://sodipodi.sourceforge.net/DTD/sodipodi-0.dtd"
   xmlns="http://www.w3.org/2000/svg"
   xmlns:svg="http://www.w3.org/2000/svg">
  <defs
     id="defs1" />
  <sodipodi:namedview
     id="namedview1"
     pagecolor="#ffffff"
     bordercolor="#000000"
     borderopacity="0.25"
     inkscape:showpageshadow="2"
     inkscape:pageopacity="0.0"
     inkscape:pagecheckerboard="0"
     inkscape:deskcolor="#d1d1d1"
     inkscape:zoom="0.71329397"
     inkscape:cx="303.52142"
     inkscape:cy="355.39345"
     inkscape:window-width="1920"
     inkscape:window-height="1009"
     inkscape:window-x="1912"
     inkscape:window-y="-8"
     inkscape:window-maximized="1"
     inkscape:current-layer="svg1" />
  <path
     d="M21.9,11.553l-3-6a.846.846,0,0,0-.164-.225A.987.987,0,0,0,18,5H13V3a1,1,0,0,0-2,0V5H6a.987.987,0,0,0-.731.328.846.846,0,0,0-.164.225l-3,6a.982.982,0,0,0-.1.447H2a4,4,0,0,0,8,0H9.99a.982.982,0,0,0-.1-.447L7.618,7H11V20H6a1,1,0,0,0,0,2H18a1,1,0,0,0,0-2H13V7h3.382l-2.277,4.553a.982.982,0,0,0-.1.447H14a4,4,0,0,0,8,0h-.01A.982.982,0,0,0,21.9,11.553ZM7.882,12H4.118L6,8.236Zm8.236,0L18,8.236,19.882,12Z"
     id="path1"
     style="fill:#ffffff;fill-opacity:1" />
</svg>
