<?xml version="1.0" encoding="UTF-8" standalone="no"?>
<!-- Uploaded to: SVG Repo, www.svgrepo.com, Generator: SVG Repo Mixer Tools -->

<svg
   fill="#000000"
   width="800px"
   height="800px"
   viewBox="0 0 24 24"
   version="1.1"
   id="svg1"
   sodipodi:docname="news.svg"
   inkscape:version="1.4.2 (f4327f4, 2025-05-13)"
   xmlns:inkscape="http://www.inkscape.org/namespaces/inkscape"
   xmlns:sodipodi="http://sodipodi.sourceforge.net/DTD/sodipodi-0.dtd"
   xmlns="http://www.w3.org/2000/svg"
   xmlns:svg="http://www.w3.org/2000/svg">
  <defs
     id="defs1" />
  <sodipodi:namedview
     id="namedview1"
     pagecolor="#ffffff"
     bordercolor="#000000"
     borderopacity="0.25"
     inkscape:showpageshadow="2"
     inkscape:pageopacity="0.0"
     inkscape:pagecheckerboard="0"
     inkscape:deskcolor="#d1d1d1"
     inkscape:zoom="0.504375"
     inkscape:cx="76.332094"
     inkscape:cy="163.56877"
     inkscape:window-width="1920"
     inkscape:window-height="1009"
     inkscape:window-x="1912"
     inkscape:window-y="-8"
     inkscape:window-maximized="1"
     inkscape:current-layer="svg1" />
  <path
     d="m 21.546469,19.483271 a 1.1784391,1.4728629 0 0 1 -2.356878,0 V 1.808922 A 1.1784387,1.4728625 0 0 0 18.011153,0.33605946 H 1.5130111 A 1.1784387,1.4728625 0 0 0 0.3345725,1.808922 v 19.147211 a 2.3568773,2.9457249 0 0 0 2.3568773,2.945726 H 20.36803 c 1.949137,0 3.535316,-1.982474 3.535316,-4.418588 V 4.7546467 H 21.546469 Z M 12.118959,4.7546467 h 3.535316 v 2.945725 h -3.535316 z m 0,5.8914493 h 3.535316 v 2.945726 H 12.118959 Z M 3.8698885,4.7546467 H 9.7620818 V 13.591822 H 3.8698885 Z m 0,14.7286243 V 16.537547 H 15.654275 v 2.945724 z"
     id="path1"
     style="fill:#a6a6a6;fill-opacity:1;stroke-width:1.31745" />
</svg>
