<?xml version="1.0" encoding="UTF-8" standalone="no"?>
<!-- Created with Inkscape (http://www.inkscape.org/) -->

<svg
   width="64.654091mm"
   height="54.039623mm"
   viewBox="0 0 64.654091 54.039623"
   version="1.1"
   id="svg1"
   xml:space="preserve"
   xmlns:inkscape="http://www.inkscape.org/namespaces/inkscape"
   xmlns:sodipodi="http://sodipodi.sourceforge.net/DTD/sodipodi-0.dtd"
   xmlns="http://www.w3.org/2000/svg"
   xmlns:svg="http://www.w3.org/2000/svg"><sodipodi:namedview
     id="namedview1"
     pagecolor="#ffffff"
     bordercolor="#000000"
     borderopacity="0.25"
     inkscape:showpageshadow="2"
     inkscape:pageopacity="0.0"
     inkscape:pagecheckerboard="0"
     inkscape:deskcolor="#d1d1d1"
     inkscape:document-units="mm"><inkscape:page
       x="0"
       y="0"
       width="64.654091"
       height="54.039623"
       id="page2"
       margin="0"
       bleed="0" /></sodipodi:namedview><defs
     id="defs1" /><g
     inkscape:label="Layer 1"
     inkscape:groupmode="layer"
     id="layer1"
     transform="translate(83.100954,-65.384332)"><path
       style="fill:#ffffff;fill-opacity:1;stroke:#ffffff;stroke-width:0.7;stroke-dasharray:none;stroke-opacity:1"
       d="m -62.943784,115.68753 c -0.126908,-0.0754 -1.148384,-0.6993 -2.223938,-1.554 -1.075555,-0.85471 -2.569749,-2.37275 -3.320433,-3.37344 -0.750683,-1.00069 -1.753718,-2.6825 -2.228967,-3.73737 -0.864089,-1.91794 -0.864089,-1.91794 -2.204558,-1.91823 -0.737258,-1.6e-4 -2.034791,-0.12864 -2.883407,-0.28552 -0.848615,-0.15687 -2.150404,-0.55484 -2.892864,-0.88438 -0.742459,-0.32954 -1.755001,-0.94139 -2.250093,-1.35968 -0.495092,-0.41828 -1.131133,-1.28266 -1.413426,-1.92083 -0.34897,-0.788901 -0.460236,-1.442946 -0.347608,-2.043309 0.09733,-0.518812 0.497693,-1.162397 0.970706,-1.560411 0.514993,-0.433338 1.126075,-0.677407 1.696041,-0.677407 0.551545,0 1.143069,0.226798 1.552666,0.595312 0.363924,0.327422 0.68193,0.833438 0.706681,1.124479 0.02475,0.291042 0.03129,0.669491 0.01453,0.840997 -0.01676,0.171507 -0.217566,0.498929 -0.446242,0.727605 -0.228675,0.228675 -0.686472,0.415774 -1.017326,0.415774 -0.330854,0 -0.817713,-0.238856 -1.08191,-0.530789 -0.264196,-0.291934 -0.402442,-0.608704 -0.307212,-0.703934 0.09523,-0.09523 0.418969,0.04932 0.719421,0.321229 0.417369,0.377714 0.651883,0.428266 0.993809,0.214226 0.246144,-0.154081 0.484097,-0.584048 0.528785,-0.955481 0.05578,-0.463585 -0.107863,-0.807796 -0.521892,-1.097793 -0.331729,-0.232352 -0.867669,-0.422458 -1.190977,-0.422458 -0.323308,0 -0.887645,0.26789 -1.254084,0.595312 -0.366438,0.327422 -0.734226,0.892969 -0.817306,1.256771 -0.09541,0.417795 0.07148,1.100051 0.453059,1.852087 0.390132,0.76889 1.058559,1.49433 1.887094,2.04805 0.705638,0.47158 1.883502,1.03576 2.617474,1.25373 0.733973,0.21797 2.283814,0.47547 3.444092,0.57224 1.99317,0.16622 2.100847,0.14814 1.951057,-0.32769 -0.0872,-0.277 -0.279613,-1.14496 -0.427592,-1.9288 -0.147978,-0.78385 -0.269051,-2.12832 -0.269051,-2.987718 0,-0.859398 0.189508,-2.48001 0.42113,-3.601361 0.231621,-1.121351 0.719324,-2.747298 1.083784,-3.613216 0.364459,-0.865918 1.07476,-2.218623 1.578447,-3.006011 0.503686,-0.787388 1.671069,-2.205691 2.594185,-3.151783 1.678392,-1.720167 1.678392,-1.720167 1.192572,-2.550785 -0.267201,-0.45684 -0.512055,-1.128274 -0.544119,-1.492076 -0.03206,-0.363802 -0.03978,-0.932296 -0.01715,-1.263319 0.0268,-0.39198 0.29488,-0.698949 0.768753,-0.88027 0.521429,-0.199518 1.021283,-0.190899 1.764015,0.03042 0.570025,0.169855 1.389522,0.661939 1.821103,1.09352 0.441176,0.441176 0.951025,0.720865 1.164645,0.638891 0.259292,-0.0995 0.320928,-0.335267 0.194088,-0.742417 -0.102226,-0.328139 -0.276519,-0.839353 -0.387318,-1.136033 -0.1108,-0.296679 -0.719979,-0.807939 -1.353733,-1.136132 -0.633753,-0.328193 -1.727239,-1.016177 -2.429967,-1.528854 -0.726514,-0.530028 -1.441403,-1.323962 -1.657197,-1.84043 -0.329132,-0.787724 -0.329329,-1.028388 -0.0015,-1.813036 0.207915,-0.49761 0.618404,-1.033391 0.912199,-1.190625 0.293794,-0.157234 0.847482,-0.28588 1.230418,-0.28588 0.382935,0 0.926544,0.123251 1.208019,0.273892 0.480682,0.257253 0.511862,0.172866 0.513248,-1.389062 8.12e-4,-0.914626 0.127605,-2.117171 0.281764,-2.672323 0.154158,-0.555152 0.507653,-1.236733 0.785544,-1.514624 0.277891,-0.277891 0.823886,-0.585228 1.213323,-0.68297 0.465397,-0.116807 1.008952,-0.01568 1.585998,0.295085 0.550725,0.296584 0.984468,0.795603 1.163778,1.338919 0.226041,0.68491 0.197555,1.077431 -0.136152,1.876105 -0.357624,0.855915 -0.379317,1.361014 -0.142204,3.311143 0.153886,1.265638 0.576047,3.323467 0.938134,4.572953 0.362087,1.249487 0.65834,2.345203 0.65834,2.434925 0,0.08972 0.496752,0.0965 1.103894,0.01507 0.683057,-0.09162 1.703478,-0.561809 2.676655,-1.233357 1.572761,-1.085293 1.572761,-1.085293 2.401835,-0.454116 0.455991,0.347148 1.330347,0.886481 1.943013,1.198519 0.612666,0.312038 1.404741,0.567342 1.760167,0.567342 0.56814,0 0.712079,-0.216802 1.191193,-1.794178 0.299731,-0.986799 0.738373,-2.91492 0.974761,-4.284715 0.236387,-1.369794 0.354423,-2.913898 0.262301,-3.431342 -0.09212,-0.517443 -0.23196,-1.427446 -0.31075,-2.022229 -0.129584,-0.978227 -0.06038,-1.151158 0.725222,-1.812198 0.710566,-0.597901 1.039514,-0.703408 1.809155,-0.580269 0.517373,0.08278 1.146073,0.401778 1.397109,0.708891 0.251037,0.307113 0.577795,0.995343 0.726129,1.529401 0.148334,0.534058 0.270362,1.719344 0.271174,2.63397 0.0014,1.561928 0.03257,1.646315 0.513248,1.389062 0.281475,-0.150641 0.860731,-0.273892 1.287235,-0.273892 0.426505,0 1.080034,0.239576 1.452288,0.532391 0.372254,0.292814 0.75305,0.879437 0.846213,1.303604 0.106594,0.485323 0.01572,1.068373 -0.245141,1.572822 -0.227989,0.440884 -0.95869,1.217107 -1.623779,1.724939 -0.665088,0.507833 -1.72719,1.174062 -2.360225,1.48051 -0.948113,0.458973 -1.222413,0.766839 -1.556302,1.746749 -0.330993,0.971411 -0.341138,1.214204 -0.05532,1.323883 0.192505,0.07387 0.703121,-0.218801 1.134702,-0.650382 0.431581,-0.431581 1.251078,-0.923665 1.821103,-1.09352 0.726134,-0.216372 1.246901,-0.228268 1.739507,-0.03974 0.476303,0.182292 0.761714,0.535969 0.884817,1.096454 0.134199,0.611006 0.01418,1.165898 -0.458958,2.121937 -0.640677,1.294573 -0.640677,1.294573 1.115624,3.091107 0.965966,0.988093 2.266673,2.656397 2.89046,3.707341 0.623786,1.050944 1.430787,2.836882 1.793334,3.96875 0.423348,1.32169 0.708952,2.95719 0.798309,4.571484 0.07652,1.382448 0.0151,3.168384 -0.136502,3.968754 -0.151599,0.80036 -0.363775,1.68234 -0.471502,1.95996 -0.186029,0.47941 -0.08922,0.49587 1.927336,0.32769 1.167762,-0.0974 2.705755,-0.35403 3.417761,-0.57033 0.712007,-0.21629 1.75949,-0.6614 2.327739,-0.98914 0.56825,-0.32774 1.376063,-1.02177 1.795141,-1.54228 0.419077,-0.52052 0.829166,-1.36054 0.911308,-1.866724 0.120606,-0.743208 0.01247,-1.083003 -0.56189,-1.765588 -0.542185,-0.644351 -0.924306,-0.845258 -1.60766,-0.845258 -0.659425,0 -1.008753,0.171437 -1.321303,0.648449 -0.233684,0.356647 -0.385257,0.849901 -0.336828,1.09612 0.04843,0.246219 0.289441,0.57449 0.535584,0.729491 0.339622,0.213866 0.567937,0.172855 0.946876,-0.170079 0.274638,-0.248544 0.579263,-0.451898 0.676946,-0.451898 0.09768,0 0.177604,0.110558 0.177604,0.245684 0,0.135127 -0.187099,0.432783 -0.415774,0.661459 -0.228676,0.228675 -0.686473,0.415774 -1.017327,0.415774 -0.330853,0 -0.798599,-0.217735 -1.039434,-0.483855 -0.240835,-0.26612 -0.437882,-0.807313 -0.437882,-1.202651 0,-0.41039 0.278645,-0.997443 0.649432,-1.368229 0.451989,-0.451989 0.942671,-0.649432 1.613958,-0.649432 0.744135,0 1.170079,0.205552 1.86411,0.899583 0.627838,0.627839 0.899583,1.142148 0.899583,1.702567 0,0.441642 -0.111087,1.095167 -0.246859,1.452277 -0.135773,0.35711 -0.631071,1.08688 -1.100662,1.62171 -0.469591,0.53484 -1.444226,1.27162 -2.165857,1.6373 -0.72163,0.36568 -2.101567,0.83221 -3.066526,1.03675 -0.964959,0.20453 -2.409315,0.38152 -3.209679,0.39332 -1.455209,0.0215 -1.455209,0.0215 -2.568344,2.3197 -0.612225,1.26404 -1.711631,3.02332 -2.443125,3.90951 -0.731494,0.88619 -2.076052,2.18607 -2.987906,2.88862 -8.214838,6.10108 -17.191502,6.28644 -26.357967,1.45324 z m 18.085491,1.99108 c 0.873125,-0.24006 2.659062,-0.95573 3.96875,-1.59038 1.309687,-0.63465 3.190456,-1.82506 4.179486,-2.64535 0.98903,-0.82029 2.341328,-2.2284 3.005106,-3.12912 0.663778,-0.90073 1.551212,-2.3189 1.972076,-3.15149 0.420864,-0.8326 0.765207,-1.63627 0.765207,-1.78594 0,-0.14967 -0.288573,-0.27213 -0.641274,-0.27213 -0.3527,0 -1.245669,-0.13951 -1.984375,-0.31002 -0.738706,-0.17052 -1.343101,-0.41721 -1.343101,-0.54821 0,-0.13277 0.673308,-0.16489 1.521354,-0.0726 0.836745,0.0911 1.817572,0.18894 2.179617,0.21748 0.584694,0.0461 0.692745,-0.096 0.966789,-1.27103 0.169688,-0.72761 0.319954,-2.4052 0.333924,-3.727992 0.01702,-1.611303 -0.148796,-3.08617 -0.502402,-4.468753 -0.29029,-1.135025 -0.848623,-2.71942 -1.24074,-3.520878 -0.392117,-0.801458 -1.210789,-2.133476 -1.819271,-2.960041 -0.608483,-0.826564 -1.827774,-2.137884 -2.709537,-2.914044 -1.603205,-1.411199 -1.603205,-1.411199 -0.966587,-1.911962 0.350139,-0.27542 0.778928,-0.975756 0.952864,-1.556303 0.270547,-0.903004 0.253997,-1.117789 -0.114523,-1.486309 -0.36852,-0.368521 -0.583306,-0.38507 -1.48631,-0.114524 -0.580547,0.173936 -1.292122,0.617013 -1.581278,0.984616 -0.289156,0.367602 -0.563434,0.777911 -0.609507,0.911796 -0.04607,0.133886 -1.123398,-0.169745 -2.394056,-0.674736 -1.270658,-0.50499 -2.478507,-0.918164 -2.684109,-0.918164 -0.205602,0 -1.162284,-0.243531 -2.12596,-0.541181 -0.992853,-0.306661 -2.15671,-0.896399 -2.685736,-1.36089 -0.933597,-0.819709 -0.933597,-0.819709 -1.649169,-0.152606 -0.393565,0.366907 -0.999903,0.813701 -1.347418,0.992876 -0.347516,0.179176 -1.716735,0.615748 -3.042709,0.970161 -1.325974,0.354414 -3.050328,0.936739 -3.831897,1.294056 -0.78157,0.357317 -1.506599,0.649667 -1.611176,0.649667 -0.104578,0 -0.325887,-0.29793 -0.491799,-0.662066 -0.165911,-0.364137 -0.691038,-0.899473 -1.166949,-1.189636 -0.47591,-0.290163 -1.118603,-0.528015 -1.428206,-0.528559 -0.309604,-5.44e-4 -0.714271,0.181383 -0.899261,0.404282 -0.26489,0.319172 -0.27042,0.625311 -0.02603,1.441014 0.170674,0.569658 0.596794,1.261086 0.946933,1.536506 0.636617,0.500763 0.636617,0.500763 -0.941497,1.889876 -0.867963,0.764013 -2.059947,2.041346 -2.648853,2.838519 -0.588906,0.797173 -1.478858,2.308789 -1.977671,3.359147 -0.498812,1.050358 -1.096265,2.798522 -1.327672,3.884808 -0.297983,1.398814 -0.378374,2.708427 -0.275534,4.48861 0.07986,1.38245 0.269622,2.93741 0.421687,3.45548 0.276481,0.94195 0.276481,0.94195 2.303545,0.72476 1.114885,-0.11945 2.087875,-0.15637 2.1622,-0.0821 0.07433,0.0743 0.06248,0.20779 -0.02632,0.29659 -0.0888,0.0888 -1.001287,0.29369 -2.027752,0.45532 -1.695341,0.26695 -1.851109,0.34305 -1.700463,0.83074 0.09121,0.29528 0.435884,1.0744 0.765942,1.73139 0.330058,0.65698 1.163954,1.9446 1.853103,2.86137 0.689149,0.91677 2.040791,2.30143 3.00365,3.07701 0.962859,0.77558 2.524559,1.82895 3.470444,2.34082 0.945885,0.51187 2.315104,1.13097 3.042708,1.37577 0.727604,0.2448 2.037292,0.6102 2.910417,0.81201 1.096314,0.25338 2.701072,0.66001 5.259137,0.58813 2.313634,-0.065 4.332639,-0.59323 5.324197,-0.86585 z m -13.758334,-14.05285 c -0.436563,-0.0623 -1.299766,-0.17908 -1.918229,-0.25962 -0.723592,-0.0942 -1.124479,-0.2798 -1.124479,-0.52049 0,-0.28497 0.204798,-0.32837 0.859895,-0.18223 0.472943,0.1055 2.556537,0.17818 4.630209,0.16151 2.073672,-0.0167 4.484687,-0.0303 5.357812,-0.0303 0.873125,0 3.284141,0.0136 5.357813,0.0303 2.073672,0.0167 4.157266,-0.056 4.630208,-0.16151 0.658615,-0.14692 0.859896,-0.10328 0.859896,0.18645 0,0.22545 -0.400829,0.45842 -0.992187,0.57666 -0.545703,0.10912 -2.718594,0.17273 -4.828646,0.14136 -2.110052,-0.0314 -4.312709,-0.0733 -4.894792,-0.0932 -0.582083,-0.0199 -2.427552,0.0314 -4.101042,0.11404 -1.673489,0.0826 -3.399896,0.0993 -3.836458,0.037 z m -2.533894,-2.99912 c -0.69983,-0.699832 -0.773398,-0.940861 -0.773398,-2.533896 0,-1.593034 0.07357,-1.834064 0.773398,-2.533894 0.425368,-0.425368 0.953399,-0.773397 1.1734,-0.773397 0.220002,0 0.699708,0.113947 1.066014,0.253216 0.366305,0.13927 0.850306,0.609607 1.075557,1.045195 0.225252,0.435587 0.409548,1.256373 0.409548,1.823968 0,0.567594 -0.131971,1.410562 -0.293269,1.873261 -0.164042,0.470567 -0.6246,1.012607 -1.045194,1.230107 -0.413559,0.21386 -0.94559,0.38884 -1.182292,0.38884 -0.236702,0 -0.778396,-0.34803 -1.203764,-0.7734 z m 9.141363,0.23637 c -0.261091,-0.2885 -0.392758,-0.6065 -0.292595,-0.70667 0.100164,-0.10016 0.428944,0.0647 0.730622,0.36639 0.305667,0.30567 0.435206,0.61853 0.292594,0.70667 -0.140751,0.087 -0.46953,-0.0779 -0.730621,-0.36639 z m 1.632962,0.33449 c -0.08699,-0.14075 0.07789,-0.46953 0.366389,-0.73062 0.288502,-0.26109 0.606502,-0.39276 0.706666,-0.2926 0.100164,0.10017 -0.06471,0.42895 -0.366389,0.73063 -0.305668,0.30566 -0.618526,0.4352 -0.706666,0.29259 z m 7.634569,-0.0966 c -0.291041,-0.16271 -0.677995,-0.48238 -0.859896,-0.71038 -0.190724,-0.23906 -0.330729,-1.168006 -0.330729,-2.194423 0,-0.978931 0.07396,-1.972609 0.164354,-2.208174 0.0904,-0.235565 0.501201,-0.602491 0.912903,-0.81539 0.411701,-0.212899 0.942213,-0.387089 1.178915,-0.387089 0.236702,0 0.778396,0.348029 1.203764,0.773397 0.705416,0.705416 0.773398,0.933932 0.773398,2.599713 0,1.552924 -0.08912,1.909496 -0.595313,2.381986 -0.327422,0.30562 -0.892969,0.62329 -1.256771,0.70593 -0.363802,0.0826 -0.899583,0.0171 -1.190625,-0.14557 z m -10.451042,-2.306968 c 0,-0.133905 0.267891,-0.416181 0.595313,-0.627281 0.327422,-0.211099 0.871321,-0.453894 1.208665,-0.539543 0.337345,-0.08565 0.992188,-0.03005 1.455209,0.123556 0.46302,0.153606 0.990301,0.416344 1.171736,0.583861 0.250678,0.23145 -0.106255,0.279934 -1.486626,0.201936 -1.058295,-0.0598 -2.051877,0.02332 -2.380402,0.199146 -0.310142,0.165983 -0.563895,0.192229 -0.563895,0.05832 z m -4.564062,-18.481138 c 0.618463,-0.216568 1.124479,-0.42713 1.124479,-0.467915 0,-0.04079 -0.187164,-0.59514 -0.41592,-1.2319 -0.228756,-0.636759 -0.642898,-2.169775 -0.920315,-3.406702 -0.277418,-1.236927 -0.506973,-3.105135 -0.510122,-4.151573 -0.0031,-1.046437 0.113336,-1.976198 0.258857,-2.066135 0.145521,-0.08994 0.264583,-0.454151 0.264583,-0.809365 0,-0.355214 -0.238125,-0.883969 -0.529166,-1.17501 -0.291042,-0.291042 -0.867901,-0.529167 -1.28191,-0.529167 -0.414009,0 -0.943924,0.211253 -1.17759,0.469451 -0.233666,0.258199 -0.525234,1.121402 -0.647928,1.918229 -0.122694,0.796828 -0.157129,2.311981 -0.07652,3.367007 0.08061,1.055026 0.07797,1.91823 -0.0059,1.91823 -0.08383,0 -0.521348,-0.416719 -0.972269,-0.926042 -0.45092,-0.509323 -1.052083,-0.926042 -1.335918,-0.926042 -0.283835,0 -0.829776,0.246767 -1.213203,0.54837 -0.433626,0.341091 -0.69714,0.808281 -0.69714,1.23598 0,0.464452 0.366478,1.037827 1.129224,1.766733 0.621073,0.593519 1.855339,1.464591 2.742814,1.935716 1.462457,0.77636 1.645258,0.969696 1.951691,2.064167 0.263424,0.940857 0.43193,1.169162 0.762915,1.033652 0.233648,-0.09566 0.93083,-0.351116 1.549294,-0.567684 z m 16.458379,-1.188398 c 0.0073,-0.272907 0.655267,-0.789054 1.660835,-1.322916 0.906896,-0.481476 2.157052,-1.361018 2.778125,-1.954537 0.762746,-0.728906 1.129224,-1.302281 1.129224,-1.766733 0,-0.427699 -0.263514,-0.894889 -0.69714,-1.23598 -0.383427,-0.301603 -0.859334,-0.54837 -1.057571,-0.54837 -0.198237,0 -0.821689,0.416719 -1.385449,0.926042 -0.56376,0.509323 -1.096147,0.926042 -1.183083,0.926042 -0.08694,0 -0.110732,-0.148829 -0.05288,-0.33073 0.05785,-0.181901 0.169498,-0.999596 0.248102,-1.817101 0.0786,-0.817505 0.0311,-2.17341 -0.105571,-3.013122 -0.136666,-0.839713 -0.449096,-1.748424 -0.694287,-2.019357 -0.245192,-0.270934 -0.784538,-0.492607 -1.198546,-0.492607 -0.414009,0 -0.990868,0.238125 -1.28191,0.529167 -0.291041,0.291041 -0.529166,0.819796 -0.529166,1.17501 0,0.355214 0.119062,0.719428 0.264583,0.809365 0.145521,0.08994 0.264583,0.994951 0.264583,2.011144 0,1.016193 -0.186402,2.750051 -0.414226,3.85302 -0.227824,1.102968 -0.630434,2.700073 -0.894688,3.549123 -0.480461,1.543726 -0.480461,1.543726 1.009539,2.048949 1.49,0.505223 1.49,0.505223 1.808796,-0.18684 0.175337,-0.380635 0.324165,-0.893441 0.330729,-1.139569 z"
       id="path1"
       sodipodi:nodetypes="ssssssssssssssssssssssssssssssssssssssssssssssssssssssssssssssssssssssssssssssssssssssssssssssssssssssssssssssssssssssssssssssssssssssssssssssssssssssssssssssssssssssssssssssssssssssssssssssssssssssssssssssssssssssssssssssssssssssssssssssssssssscsssssssssssssssssssssssssssssssssssssssss" /><path
       style="baseline-shift:baseline;display:inline;overflow:visible;opacity:1;fill:#ffffff;fill-opacity:1;stroke:#ffffff;stroke-width:0.7;stroke-dasharray:none;stroke-opacity:1;enable-background:accumulate;stop-color:#000000;stop-opacity:1"
       d="m -36.464282,101.06462 c -1.871993,0 -3.441407,1.32092 -3.441407,3.00586 0,1.68494 1.569414,3.00586 3.441407,3.00586 1.871993,0 3.441406,-1.32092 3.441406,-3.00586 0,-1.68494 -1.569413,-3.00586 -3.441406,-3.00586 z m 0,0.66211 c 1.564727,0 2.78125,1.07471 2.78125,2.34375 0,1.26904 -1.216523,2.34375 -2.78125,2.34375 -1.564728,0 -2.78125,-1.07471 -2.78125,-2.34375 0,-1.26904 1.216522,-2.34375 2.78125,-2.34375 z"
       id="path2" /><path
       style="baseline-shift:baseline;display:inline;overflow:visible;opacity:1;fill:#ffffff;fill-opacity:1;stroke:#ffffff;stroke-width:0.7;stroke-dasharray:none;stroke-opacity:1;enable-background:accumulate;stop-color:#000000;stop-opacity:1"
       d="m -64.972095,101.0197 c -1.871993,0 -3.441406,1.32092 -3.441406,3.00586 0,1.68494 1.569413,3.0039 3.441406,3.0039 1.871993,0 3.44336,-1.31896 3.44336,-3.0039 0,-1.68494 -1.571367,-3.00586 -3.44336,-3.00586 z m 0,0.66211 c 1.564728,0 2.78125,1.0747 2.78125,2.34375 0,1.26904 -1.216522,2.34375 -2.78125,2.34375 -1.564727,0 -2.78125,-1.07471 -2.78125,-2.34375 0,-1.26905 1.216523,-2.34375 2.78125,-2.34375 z"
       id="path2-7" /><path
       style="baseline-shift:baseline;display:inline;overflow:visible;opacity:1;fill:#ffffff;fill-opacity:1;stroke:#ffffff;stroke-width:0.7;stroke-dasharray:none;stroke-opacity:1;enable-background:accumulate;stop-color:#000000;stop-opacity:1"
       d="m -55.995744,90.9234 c -0.677684,-0.400674 -1.560305,-0.173945 -1.960979,0.503739 -0.400674,0.677684 -0.172951,1.558623 0.504733,1.959297 l 2.335261,1.3807 c 0.677684,0.400674 1.55931,0.175627 1.959984,-0.502057 0.400674,-0.677684 0.173946,-1.560305 -0.503738,-1.960979 z m -0.33598,0.568263 2.335261,1.380701 c 0.372093,0.219996 0.491451,0.684641 0.271454,1.056735 -0.219996,0.372093 -0.683646,0.489771 -1.05574,0.269774 l -2.335261,-1.380701 c -0.372093,-0.219996 -0.490765,-0.681965 -0.270768,-1.054059 0.219997,-0.372093 0.68296,-0.492446 1.055054,-0.27245 z"
       id="rect2" /><path
       style="baseline-shift:baseline;display:inline;overflow:visible;opacity:1;fill:#ffffff;fill-opacity:1;stroke:#ffffff;stroke-width:0.7;stroke-dasharray:none;stroke-opacity:1;enable-background:accumulate;stop-color:#000000;stop-opacity:1"
       d="m -47.871488,92.459615 c -0.671245,0.411372 -0.883947,1.297477 -0.472575,1.968722 0.411371,0.671244 1.297476,0.883947 1.968721,0.472575 l 2.314735,-1.418582 c 0.671245,-0.411372 0.883947,-1.297477 0.472575,-1.968721 -0.411371,-0.671245 -1.297476,-0.883948 -1.968721,-0.472576 z m 0.345971,0.56453 2.314735,-1.418583 c 0.368559,-0.22587 0.832351,-0.11454 1.058221,0.254017 0.225871,0.368558 0.114541,0.832351 -0.254017,1.058221 l -2.314735,1.418583 c -0.368559,0.22587 -0.832351,0.114541 -1.058221,-0.254017 -0.225871,-0.368558 -0.114541,-0.832351 0.254017,-1.058221 z"
       id="rect2-7" /><path
       style="baseline-shift:baseline;display:inline;overflow:visible;opacity:1;fill:#ffffff;fill-opacity:1;stroke:#ffffff;stroke-width:0.7;stroke-dasharray:none;stroke-opacity:1;enable-background:accumulate;stop-color:#000000;stop-opacity:1"
       d="m -59.890064,102.89079 -0.109375,0.17578 c -0.10622,0.16996 -0.08579,0.31333 -0.06445,0.44532 0.02134,0.13198 0.06343,0.26493 0.119141,0.4082 0.111431,0.28654 0.28021,0.60915 0.472656,0.92187 0.192446,0.31273 0.408079,0.61239 0.621094,0.84766 0.106508,0.11764 0.211133,0.21898 0.324219,0.30078 0.113085,0.0818 0.234448,0.1582 0.417968,0.1582 0.198554,0 0.325733,-0.0974 0.429688,-0.19335 0.103955,-0.096 0.191955,-0.21063 0.279297,-0.33985 0.174683,-0.25843 0.34163,-0.57961 0.492187,-0.89844 0.301114,-0.63765 0.535157,-1.26757 0.535157,-1.26757 l 0.169921,-0.45899 -0.490234,0.0137 c 0,0 -1.74334,0.044 -2.992187,-0.0898 z m 0.533204,0.69141 c 0.992324,0.0686 1.819206,0.0731 2.18164,0.0664 -0.09007,0.22945 -0.145519,0.39628 -0.330078,0.78711 -0.142716,0.30222 -0.301251,0.60124 -0.441406,0.80859 -0.07008,0.10368 -0.136466,0.18471 -0.179688,0.22461 -0.01,-0.004 0.01,0.003 -0.01367,-0.0137 -0.05583,-0.0404 -0.13457,-0.11385 -0.220703,-0.20898 -0.172265,-0.19027 -0.373244,-0.46663 -0.548828,-0.75196 -0.175583,-0.28532 -0.328133,-0.58344 -0.417969,-0.81445 -0.01604,-0.0413 -0.0176,-0.0616 -0.0293,-0.0977 z"
       id="path3" /><path
       style="baseline-shift:baseline;display:inline;overflow:visible;opacity:1;fill:#ffffff;fill-opacity:1;stroke:#ffffff;stroke-width:0.7;stroke-dasharray:none;stroke-opacity:1;enable-background:accumulate;stop-color:#000000;stop-opacity:1"
       d="m -41.720142,102.86345 -0.205078,0.0234 c -1.248847,0.1338 -2.992187,0.0898 -2.992187,0.0898 l -0.488282,-0.0137 0.169922,0.45898 c 0,0 0.232089,0.62993 0.533203,1.26758 0.150558,0.31883 0.317505,0.64 0.492188,0.89844 0.08734,0.12922 0.175342,0.24388 0.279297,0.33984 0.103955,0.096 0.233087,0.19336 0.43164,0.19336 0.183521,0 0.304884,-0.0764 0.417969,-0.1582 0.113086,-0.0818 0.217711,-0.18315 0.324219,-0.30078 0.213015,-0.23527 0.426695,-0.53493 0.619141,-0.84766 0.192445,-0.31272 0.361225,-0.63534 0.472656,-0.92187 0.05571,-0.14327 0.09781,-0.27622 0.11914,-0.40821 0.02134,-0.13198 0.04372,-0.27536 -0.0625,-0.44531 z m -0.53125,0.6914 c -0.0117,0.0361 -0.01326,0.0564 -0.0293,0.0977 -0.08984,0.23101 -0.244338,0.52913 -0.419921,0.81446 -0.175584,0.28532 -0.37461,0.56169 -0.546875,0.75195 -0.08613,0.0951 -0.166822,0.16859 -0.222657,0.20898 -0.0227,0.0164 -0.0014,0.009 -0.01172,0.0137 -0.04322,-0.0399 -0.109611,-0.12093 -0.179688,-0.2246 -0.140155,-0.20736 -0.29869,-0.50638 -0.441406,-0.8086 -0.184617,-0.39095 -0.241982,-0.55768 -0.332031,-0.78711 0.362758,0.007 1.190511,0.002 2.183593,-0.0664 z"
       id="path3-3" /></g></svg>
