<?xml version="1.0" encoding="UTF-8" standalone="no"?>
<!-- Uploaded to: SVG Repo, www.svgrepo.com, Generator: SVG Repo Mixer Tools -->

<svg
   version="1.1"
   id="Uploaded to svgrepo.com"
   width="800px"
   height="800px"
   viewBox="0 0 32 32"
   xml:space="preserve"
   sodipodi:docname="speak-svgrepo-com.svg"
   inkscape:version="1.4.2 (f4327f4, 2025-05-13)"
   xmlns:inkscape="http://www.inkscape.org/namespaces/inkscape"
   xmlns:sodipodi="http://sodipodi.sourceforge.net/DTD/sodipodi-0.dtd"
   xmlns="http://www.w3.org/2000/svg"
   xmlns:svg="http://www.w3.org/2000/svg"><defs
   id="defs1" /><sodipodi:namedview
   id="namedview1"
   pagecolor="#ffffff"
   bordercolor="#000000"
   borderopacity="0.25"
   inkscape:showpageshadow="2"
   inkscape:pageopacity="0.0"
   inkscape:pagecheckerboard="0"
   inkscape:deskcolor="#d1d1d1"
   inkscape:zoom="0.504375"
   inkscape:cx="195.2912"
   inkscape:cy="252.7881"
   inkscape:window-width="1920"
   inkscape:window-height="1009"
   inkscape:window-x="1912"
   inkscape:window-y="-8"
   inkscape:window-maximized="1"
   inkscape:current-layer="Uploaded to svgrepo.com" />
<style
   type="text/css"
   id="style1">
	.puchipuchi_een{fill:#111918;}
</style>
<path
   class="puchipuchi_een"
   d="M 27.144238,5.1666251 H 4.8557621 c -0.942974,0 -1.7144981,0.7715242 -1.7144981,1.7144981 V 22.311606 c 0,0.942974 0.7715241,1.714498 1.7144981,1.714498 H 19.428997 V 27.1002 c 0,0.763808 0.923257,1.146142 1.463324,0.606074 l 3.680169,-3.68017 h 2.571748 c 0.942974,0 1.714498,-0.771524 1.714498,-1.714498 V 6.8811232 c 0,-0.9429739 -0.771524,-1.7144981 -1.714498,-1.7144981 z M 20.286245,17.168112 h -8.57249 c -0.474059,0 -0.85725,-0.384048 -0.85725,-0.857249 0,-0.473202 0.383191,-0.857249 0.85725,-0.857249 h 8.57249 c 0.474059,0 0.85725,0.384047 0.85725,0.857249 0,0.473201 -0.383191,0.857249 -0.85725,0.857249 z m 0,-3.428996 h -8.57249 c -0.474059,0 -0.85725,-0.384048 -0.85725,-0.857249 0,-0.473202 0.383191,-0.85725 0.85725,-0.85725 h 8.57249 c 0.474059,0 0.85725,0.384048 0.85725,0.85725 0,0.473201 -0.383191,0.857249 -0.85725,0.857249 z"
   id="path1"
   style="stroke-width:0.857249;fill:#ffffff;fill-opacity:1" />
</svg>
