<?xml version="1.0" encoding="UTF-8" standalone="no"?>
<!-- Uploaded to: SVG Repo, www.svgrepo.com, Generator: SVG Repo Mixer Tools -->

<svg
   fill="#000000"
   height="800"
   width="800"
   version="1.1"
   id="Capa_1"
   viewBox="0 0 488.6 488.6"
   xml:space="preserve"
   sodipodi:docname="speechBlue.svg"
   inkscape:version="1.4.2 (f4327f4, 2025-05-13)"
   xmlns:inkscape="http://www.inkscape.org/namespaces/inkscape"
   xmlns:sodipodi="http://sodipodi.sourceforge.net/DTD/sodipodi-0.dtd"
   xmlns="http://www.w3.org/2000/svg"
   xmlns:svg="http://www.w3.org/2000/svg"><defs
   id="defs1" /><sodipodi:namedview
   id="namedview1"
   pagecolor="#ffffff"
   bordercolor="#000000"
   borderopacity="0.25"
   inkscape:showpageshadow="2"
   inkscape:pageopacity="0.0"
   inkscape:pagecheckerboard="0"
   inkscape:deskcolor="#d1d1d1"
   showguides="false"
   inkscape:zoom="1.00875"
   inkscape:cx="400"
   inkscape:cy="400"
   inkscape:window-width="1920"
   inkscape:window-height="1009"
   inkscape:window-x="1912"
   inkscape:window-y="-8"
   inkscape:window-maximized="1"
   inkscape:current-layer="Capa_1"><inkscape:page
     x="0"
     y="0"
     width="488.60001"
     height="488.60001"
     id="page2"
     margin="0"
     bleed="0" /></sodipodi:namedview>
<g
   id="g1"
   transform="matrix(0.81774695,0,0,0.81774695,44.52442,44.524432)"
   style="fill:#4898bd;fill-opacity:1">
	<path
   d="m 129.2,449.803 77.3,-77.3 h 114 c 92.8,0 168.1,-75.3 168.1,-168.1 0,-92.8 -75.2,-168.1 -168.1,-168.1 H 168.1 c -92.9,0 -168.1,75.3 -168.1,168.1 0,74.3 48.2,137.2 115,159.4 v 80.1 c 0,7.5 8.9,11.2 14.2,5.9 z m 184.2,-266.2 c 11.5,0 20.8,9.3 20.8,20.8 0,11.5 -9.3,20.8 -20.8,20.8 -11.5,0 -20.8,-9.3 -20.8,-20.8 0,-11.5 9.3,-20.8 20.8,-20.8 z m -69.1,0 c 11.5,0 20.8,9.3 20.8,20.8 0,11.5 -9.3,20.8 -20.8,20.8 -11.5,0 -20.8,-9.3 -20.8,-20.8 0,-11.5 9.3,-20.8 20.8,-20.8 z m -69.1,0 c 11.5,0 20.8,9.3 20.8,20.8 0,11.5 -9.3,20.8 -20.8,20.8 -11.5,0 -20.8,-9.3 -20.8,-20.8 0,-11.5 9.3,-20.8 20.8,-20.8 z"
   id="path1"
   style="fill:#4898bd;fill-opacity:1" />
</g>
</svg>
